<?xml version="1.0" ?><svg height="128" id="svg8" version="1.1" viewBox="0 0 33.866666 33.866668" width="128" xmlns="http://www.w3.org/2000/svg" xmlns:svg="http://www.w3.org/2000/svg" xmlns:xlink="http://www.w3.org/1999/xlink"><defs id="defs2"><clipPath clipPathUnits="userSpaceOnUse" id="clipPath5292"><ellipse cx="554.68481" cy="1234.8002" id="ellipse5294" rx="46.906162" ry="46.90797" style="display:inline;opacity:0.469;fill:#ffaaaa;fill-rule:evenodd;stroke:#333333;stroke-width:3.5625;stroke-linecap:round;stroke-linejoin:round;stroke-miterlimit:4;stroke-dasharray:none;stroke-dashoffset:6.5999999;stroke-opacity:1"/></clipPath><clipPath clipPathUnits="userSpaceOnUse" id="clipPath6174"><ellipse cx="128.2972" cy="1416.0679" id="ellipse6176" rx="55.76445" ry="55.766594" style="display:inline;opacity:0.572;fill:#ff9696;fill-opacity:1;fill-rule:evenodd;stroke:#333333;stroke-width:4.21448183;stroke-linecap:round;stroke-linejoin:round;stroke-miterlimit:4;stroke-dasharray:none;stroke-dashoffset:6.5999999;stroke-opacity:1"/></clipPath><clipPath clipPathUnits="userSpaceOnUse" id="clipPath5123"><ellipse cx="68.499504" cy="1656.6876" id="ellipse5125" rx="71.409416" ry="71.223892" style="display:inline;opacity:0.45199998;fill:#ffe680;fill-rule:evenodd;stroke:none;stroke-width:4.21448183;stroke-linecap:round;stroke-linejoin:round;stroke-miterlimit:4;stroke-dasharray:none;stroke-dashoffset:6.5999999;stroke-opacity:1"/></clipPath><clipPath clipPathUnits="userSpaceOnUse" id="clipPath8754"><ellipse cx="205.48343" cy="1298.3982" id="ellipse8756" rx="78.18396" ry="83.010139" style="display:inline;opacity:0.419;fill:#ffaaaa;fill-opacity:1;fill-rule:evenodd;stroke:#333333;stroke-width:4.21448183;stroke-linecap:round;stroke-linejoin:round;stroke-miterlimit:4;stroke-dasharray:none;stroke-dashoffset:6.5999999;stroke-opacity:1"/></clipPath><clipPath clipPathUnits="userSpaceOnUse" id="clipPath11474"><ellipse cx="230.12242" cy="1486.3468" id="ellipse11476" rx="55.76445" ry="55.766594" style="display:inline;opacity:0.32099998;fill:#efb5e3;fill-opacity:1;fill-rule:evenodd;stroke:none;stroke-width:4.21448183;stroke-linecap:round;stroke-linejoin:round;stroke-miterlimit:4;stroke-dasharray:none;stroke-dashoffset:6.5999999;stroke-opacity:1"/></clipPath><clipPath clipPathUnits="userSpaceOnUse" id="clipPath5143"><ellipse cx="209.94763" cy="1573.1123" id="ellipse5145" rx="55.764446" ry="55.766594" style="display:inline;opacity:0.43500001;fill:#ffaaaa;fill-rule:evenodd;stroke:#333333;stroke-width:4.21448183;stroke-linecap:round;stroke-linejoin:round;stroke-miterlimit:4;stroke-dasharray:none;stroke-dashoffset:6.5999999;stroke-opacity:1"/></clipPath><linearGradient gradientTransform="matrix(0.63791266,0,0,0.58318169,151.02935,321.31261)" gradientUnits="userSpaceOnUse" id="linearGradient6815" x1="2593.0557" x2="2727.9114" xlink:href="#linearGradient6809" y1="881.36176" y2="1265.8795"/><linearGradient id="linearGradient6809"><stop id="stop6811" offset="0" style="stop-color:#ff5555;stop-opacity:1;"/><stop id="stop6813" offset="1" style="stop-color:#fae97b;stop-opacity:1"/></linearGradient></defs><g id="layer1" transform="translate(0,-263.13332)"><g id="g7115" transform="matrix(0.13219794,0,0,0.13219794,-216.50057,167.41539)"><path d="m 1765.2012,725.42969 c -3.0721,-0.19573 -7.7956,2.08859 -9.5821,4.69922 -3.6724,5.36767 -3.983,10.72325 -4.0664,15.16015 -0.083,4.4369 0.367,8.42524 0.4336,10.00977 a 9.6962811,9.6962811 0 0 0 0.066,0.78515 c 0.5166,4.16775 2.1524,8.22477 4.9961,11.15235 2.8438,2.92758 6.4557,4.30796 9.3086,4.81445 2.8529,0.50649 5.1676,0.34414 6.8028,0.20703 1.6352,-0.1371 3.2451,-0.0323 1.3378,-0.21679 l -4.6914,-17.54688 c 0.7363,-0.52435 3.0987,-1.46316 3.0977,-1.46289 -10e-4,2.7e-4 4.581,-0.11307 4.5801,-0.11328 -10e-4,-2.1e-4 3.7802,1.73506 3.7793,1.73437 -9e-4,-6.8e-4 1.5208,1.38919 1.9472,1.96485 1.7059,2.30264 1.5388,3.07383 1.6661,3.64843 0.2546,1.14922 0.1958,1.30979 0.205,1.49415 0.018,0.36871 0.01,0.27707 0.01,0.14453 0,-0.26508 0.024,-0.91667 0.045,-1.73047 0.043,-1.6276 0.092,-3.99706 0.031,-6.69922 -0.1226,-5.40385 -0.3013,-11.90339 -3.166,-18.47852 v -0.002 c -1.9566,-4.49044 -7.2625,-6.71655 -9.3887,-7.07031 -0.5521,-0.0919 -0.6856,-0.11754 -1.0215,-0.17969 -0.8472,-0.644 -2.0251,-2.0364 -6.3886,-2.31445 z" id="path6850" style="display:inline;fill:#000000;fill-opacity:1;fill-rule:evenodd;stroke:none;stroke-width:8.90538883;stroke-linecap:round;stroke-linejoin:round;stroke-miterlimit:4;stroke-dasharray:none;stroke-dashoffset:0;stroke-opacity:1" transform="translate(1.2821091e-6)" xlink:href="#path6825"/><path d="m 1762.9824,743.27148 c -31.9693,0.29223 -54.9063,14.34952 -68.3613,33.45118 -13.455,19.10165 -18.3066,42.26049 -19.5313,62.66601 -1.3942,23.2314 8.0405,54.51503 21.836,82.59571 6.8977,14.04033 14.9488,27.04544 24.0722,37.26171 9.1235,10.21627 19.5253,18.39624 32.6153,19.40039 32.1542,2.46659 57.7223,-16.38462 74.3203,-40.49218 16.598,-24.10757 25.8464,-53.91216 28.3027,-79.44336 2.1406,-22.24938 -4.6745,-47.20007 -15.8789,-68.46875 -11.2043,-21.26869 -26.5814,-39.84649 -47.6894,-43.9961 -10.6819,-2.09994 -20.5519,-3.05809 -29.6856,-2.97461 z" id="path6848" style="fill:#000000;fill-opacity:1;fill-rule:evenodd;stroke:none;stroke-width:1px;stroke-linecap:butt;stroke-linejoin:miter;stroke-opacity:1" transform="translate(1.2821091e-6)" xlink:href="#path6807"/><path d="m 1790.4465,757.54288 c -80.1176,-15.7503 -101.2523,39.02594 -103.8636,82.53561 -2.2786,37.96579 34.7812,124.54881 67.9108,127.09022 54.7081,4.19672 85.7496,-62.45614 90.2814,-109.56053 3.6347,-37.77972 -24.4712,-94.19567 -54.3286,-100.0653 z" id="path6807" style="fill:url(#linearGradient6815);fill-opacity:1;fill-rule:evenodd;stroke:none;stroke-width:1px;stroke-linecap:butt;stroke-linejoin:miter;stroke-opacity:1"/><path d="m 1761.6733,754.89106 c -0.1928,-4.5833 -1.5982,-14.1038 1.9479,-19.28681 1.0599,-1.54903 3.1472,0.93653 4.6996,1.46923 1.6127,0.55337 3.9891,-0.0472 4.7904,1.79274 3.4773,7.97987 2.0477,23.71866 2.3201,23.52468 -2.6459,-0.25592 -12.4491,3.06131 -13.758,-7.49984 z" id="path6825" style="display:inline;fill:#a05018;fill-opacity:1;fill-rule:evenodd;stroke:none;stroke-width:8.90538883;stroke-linecap:round;stroke-linejoin:round;stroke-miterlimit:4;stroke-dasharray:none;stroke-dashoffset:0;stroke-opacity:1"/><path d="m 1717.1995,809.2151 c 1.8608,0.30079 -0.1826,16.92648 1.0578,40.75646 0.5709,10.90508 2.0413,23.45408 5.763,36.01729 0.037,0.12554 0.074,0.25109 0.1118,0.37666 3.7039,12.40135 9.1145,23.12802 15.0673,32.05907 13.3336,20.05967 27.3456,30.57068 26.2126,32.11279 -0.61,0.83023 -17.1854,-5.9038 -33.3899,-26.96022 -7.0866,-9.23215 -13.4207,-20.78605 -17.4718,-34.34984 -0.041,-0.13725 -0.082,-0.27451 -0.1221,-0.41177 -4.0331,-13.7518 -5.147,-27.19618 -4.9285,-38.70601 0.4731,-25.21031 6.3916,-41.1059 7.6998,-40.89443 z" id="path6852" style="opacity:1;fill:#000000;fill-opacity:1;fill-rule:evenodd;stroke:none;stroke-width:20;stroke-linecap:round;stroke-linejoin:round;stroke-miterlimit:4;stroke-dasharray:none;stroke-dashoffset:0;stroke-opacity:1"/></g></g></svg>